<svg xmlns="http://www.w3.org/2000/svg" xmlns:xlink="http://www.w3.org/1999/xlink" style="background: rgb(22, 197, 255); display: block; position: relative; shape-rendering: auto;" width="110" height="110" preserveAspectRatio="xMidYMid" viewBox="0 0 110 110"><g transform="scale(0.43)"><path d="M 1 1 L 31 1 L 31 31 L 1 31 Z" fill="#bffff7">
  <animate attributeName="fill" begin="-0.9188710985203182s" values="#bffff7;#41fff5;#00c8ff;#bffff7" keyTimes="0;0.3333333333333333;0.6666666666666666;1" dur="1s" repeatCount="indefinite"/>
</path><path d="M 1 33 L 31 33 L 31 63 L 1 63 Z" fill="#bffff7">
  <animate attributeName="fill" begin="-0.6780650246356913s" values="#bffff7;#41fff5;#00c8ff;#bffff7" keyTimes="0;0.3333333333333333;0.6666666666666666;1" dur="1s" repeatCount="indefinite"/>
</path><path d="M 1 65 L 31 65 L 31 95 L 1 95 Z" fill="#bffff7">
  <animate attributeName="fill" begin="-0.5402655890077561s" values="#bffff7;#41fff5;#00c8ff;#bffff7" keyTimes="0;0.3333333333333333;0.6666666666666666;1" dur="1s" repeatCount="indefinite"/>
</path><path d="M 1 97 L 31 97 L 31 127 L 1 127 Z" fill="#bffff7">
  <animate attributeName="fill" begin="-0.6406942005420971s" values="#bffff7;#41fff5;#00c8ff;#bffff7" keyTimes="0;0.3333333333333333;0.6666666666666666;1" dur="1s" repeatCount="indefinite"/>
</path><path d="M 1 129 L 31 129 L 31 159 L 1 159 Z" fill="#bffff7">
  <animate attributeName="fill" begin="-0.0647774591417523s" values="#bffff7;#41fff5;#00c8ff;#bffff7" keyTimes="0;0.3333333333333333;0.6666666666666666;1" dur="1s" repeatCount="indefinite"/>
</path><path d="M 1 161 L 31 161 L 31 191 L 1 191 Z" fill="#bffff7">
  <animate attributeName="fill" begin="-0.971673872997486s" values="#bffff7;#41fff5;#00c8ff;#bffff7" keyTimes="0;0.3333333333333333;0.6666666666666666;1" dur="1s" repeatCount="indefinite"/>
</path><path d="M 1 193 L 31 193 L 31 223 L 1 223 Z" fill="#bffff7">
  <animate attributeName="fill" begin="-0.7737478436892831s" values="#bffff7;#41fff5;#00c8ff;#bffff7" keyTimes="0;0.3333333333333333;0.6666666666666666;1" dur="1s" repeatCount="indefinite"/>
</path><path d="M 1 225 L 31 225 L 31 255 L 1 255 Z" fill="#bffff7">
  <animate attributeName="fill" begin="-0.4378208202278995s" values="#bffff7;#41fff5;#00c8ff;#bffff7" keyTimes="0;0.3333333333333333;0.6666666666666666;1" dur="1s" repeatCount="indefinite"/>
</path><path d="M 33 1 L 63 1 L 63 31 L 33 31 Z" fill="#bffff7">
  <animate attributeName="fill" begin="-0.07469029840989255s" values="#bffff7;#41fff5;#00c8ff;#bffff7" keyTimes="0;0.3333333333333333;0.6666666666666666;1" dur="1s" repeatCount="indefinite"/>
</path><path d="M 33 33 L 63 33 L 63 63 L 33 63 Z" fill="#bffff7">
  <animate attributeName="fill" begin="-0.5743032400581409s" values="#bffff7;#41fff5;#00c8ff;#bffff7" keyTimes="0;0.3333333333333333;0.6666666666666666;1" dur="1s" repeatCount="indefinite"/>
</path><path d="M 33 65 L 63 65 L 63 95 L 33 95 Z" fill="#bffff7">
  <animate attributeName="fill" begin="-0.6267303058477276s" values="#bffff7;#41fff5;#00c8ff;#bffff7" keyTimes="0;0.3333333333333333;0.6666666666666666;1" dur="1s" repeatCount="indefinite"/>
</path><path d="M 33 97 L 63 97 L 63 127 L 33 127 Z" fill="#bffff7">
  <animate attributeName="fill" begin="-0.15524747628023144s" values="#bffff7;#41fff5;#00c8ff;#bffff7" keyTimes="0;0.3333333333333333;0.6666666666666666;1" dur="1s" repeatCount="indefinite"/>
</path><path d="M 33 129 L 63 129 L 63 159 L 33 159 Z" fill="#bffff7">
  <animate attributeName="fill" begin="-0.7969601785783457s" values="#bffff7;#41fff5;#00c8ff;#bffff7" keyTimes="0;0.3333333333333333;0.6666666666666666;1" dur="1s" repeatCount="indefinite"/>
</path><path d="M 33 161 L 63 161 L 63 191 L 33 191 Z" fill="#bffff7">
  <animate attributeName="fill" begin="-0.84492211563259s" values="#bffff7;#41fff5;#00c8ff;#bffff7" keyTimes="0;0.3333333333333333;0.6666666666666666;1" dur="1s" repeatCount="indefinite"/>
</path><path d="M 33 193 L 63 193 L 63 223 L 33 223 Z" fill="#bffff7">
  <animate attributeName="fill" begin="-0.01511828641728111s" values="#bffff7;#41fff5;#00c8ff;#bffff7" keyTimes="0;0.3333333333333333;0.6666666666666666;1" dur="1s" repeatCount="indefinite"/>
</path><path d="M 33 225 L 63 225 L 63 255 L 33 255 Z" fill="#bffff7">
  <animate attributeName="fill" begin="-0.6897374974513014s" values="#bffff7;#41fff5;#00c8ff;#bffff7" keyTimes="0;0.3333333333333333;0.6666666666666666;1" dur="1s" repeatCount="indefinite"/>
</path><path d="M 65 1 L 95 1 L 95 31 L 65 31 Z" fill="#bffff7">
  <animate attributeName="fill" begin="-0.6872286388082466s" values="#bffff7;#41fff5;#00c8ff;#bffff7" keyTimes="0;0.3333333333333333;0.6666666666666666;1" dur="1s" repeatCount="indefinite"/>
</path><path d="M 65 33 L 95 33 L 95 63 L 65 63 Z" fill="#bffff7">
  <animate attributeName="fill" begin="-0.9110522413375802s" values="#bffff7;#41fff5;#00c8ff;#bffff7" keyTimes="0;0.3333333333333333;0.6666666666666666;1" dur="1s" repeatCount="indefinite"/>
</path><path d="M 65 65 L 95 65 L 95 95 L 65 95 Z" fill="#bffff7">
  <animate attributeName="fill" begin="-0.5070415029732437s" values="#bffff7;#41fff5;#00c8ff;#bffff7" keyTimes="0;0.3333333333333333;0.6666666666666666;1" dur="1s" repeatCount="indefinite"/>
</path><path d="M 65 97 L 95 97 L 95 127 L 65 127 Z" fill="#bffff7">
  <animate attributeName="fill" begin="-0.15121014407555908s" values="#bffff7;#41fff5;#00c8ff;#bffff7" keyTimes="0;0.3333333333333333;0.6666666666666666;1" dur="1s" repeatCount="indefinite"/>
</path><path d="M 65 129 L 95 129 L 95 159 L 65 159 Z" fill="#bffff7">
  <animate attributeName="fill" begin="-0.7826101691066689s" values="#bffff7;#41fff5;#00c8ff;#bffff7" keyTimes="0;0.3333333333333333;0.6666666666666666;1" dur="1s" repeatCount="indefinite"/>
</path><path d="M 65 161 L 95 161 L 95 191 L 65 191 Z" fill="#bffff7">
  <animate attributeName="fill" begin="-0.06367240870575606s" values="#bffff7;#41fff5;#00c8ff;#bffff7" keyTimes="0;0.3333333333333333;0.6666666666666666;1" dur="1s" repeatCount="indefinite"/>
</path><path d="M 65 193 L 95 193 L 95 223 L 65 223 Z" fill="#bffff7">
  <animate attributeName="fill" begin="-0.1893964957605983s" values="#bffff7;#41fff5;#00c8ff;#bffff7" keyTimes="0;0.3333333333333333;0.6666666666666666;1" dur="1s" repeatCount="indefinite"/>
</path><path d="M 65 225 L 95 225 L 95 255 L 65 255 Z" fill="#bffff7">
  <animate attributeName="fill" begin="-0.5613796212331286s" values="#bffff7;#41fff5;#00c8ff;#bffff7" keyTimes="0;0.3333333333333333;0.6666666666666666;1" dur="1s" repeatCount="indefinite"/>
</path><path d="M 97 1 L 127 1 L 127 31 L 97 31 Z" fill="#bffff7">
  <animate attributeName="fill" begin="-0.5643519455560606s" values="#bffff7;#41fff5;#00c8ff;#bffff7" keyTimes="0;0.3333333333333333;0.6666666666666666;1" dur="1s" repeatCount="indefinite"/>
</path><path d="M 97 33 L 127 33 L 127 63 L 97 63 Z" fill="#bffff7">
  <animate attributeName="fill" begin="-0.5099899607091399s" values="#bffff7;#41fff5;#00c8ff;#bffff7" keyTimes="0;0.3333333333333333;0.6666666666666666;1" dur="1s" repeatCount="indefinite"/>
</path><path d="M 97 65 L 127 65 L 127 95 L 97 95 Z" fill="#bffff7">
  <animate attributeName="fill" begin="-0.2519636907932509s" values="#bffff7;#41fff5;#00c8ff;#bffff7" keyTimes="0;0.3333333333333333;0.6666666666666666;1" dur="1s" repeatCount="indefinite"/>
</path><path d="M 97 97 L 127 97 L 127 127 L 97 127 Z" fill="#bffff7">
  <animate attributeName="fill" begin="-0.18814476581790404s" values="#bffff7;#41fff5;#00c8ff;#bffff7" keyTimes="0;0.3333333333333333;0.6666666666666666;1" dur="1s" repeatCount="indefinite"/>
</path><path d="M 97 129 L 127 129 L 127 159 L 97 159 Z" fill="#bffff7">
  <animate attributeName="fill" begin="-0.970000955058339s" values="#bffff7;#41fff5;#00c8ff;#bffff7" keyTimes="0;0.3333333333333333;0.6666666666666666;1" dur="1s" repeatCount="indefinite"/>
</path><path d="M 97 161 L 127 161 L 127 191 L 97 191 Z" fill="#bffff7">
  <animate attributeName="fill" begin="-0.962305952950284s" values="#bffff7;#41fff5;#00c8ff;#bffff7" keyTimes="0;0.3333333333333333;0.6666666666666666;1" dur="1s" repeatCount="indefinite"/>
</path><path d="M 97 193 L 127 193 L 127 223 L 97 223 Z" fill="#bffff7">
  <animate attributeName="fill" begin="-0.13031161284150294s" values="#bffff7;#41fff5;#00c8ff;#bffff7" keyTimes="0;0.3333333333333333;0.6666666666666666;1" dur="1s" repeatCount="indefinite"/>
</path><path d="M 97 225 L 127 225 L 127 255 L 97 255 Z" fill="#bffff7">
  <animate attributeName="fill" begin="-0.5528982944160102s" values="#bffff7;#41fff5;#00c8ff;#bffff7" keyTimes="0;0.3333333333333333;0.6666666666666666;1" dur="1s" repeatCount="indefinite"/>
</path><path d="M 129 1 L 159 1 L 159 31 L 129 31 Z" fill="#bffff7">
  <animate attributeName="fill" begin="-0.6684622598095676s" values="#bffff7;#41fff5;#00c8ff;#bffff7" keyTimes="0;0.3333333333333333;0.6666666666666666;1" dur="1s" repeatCount="indefinite"/>
</path><path d="M 129 33 L 159 33 L 159 63 L 129 63 Z" fill="#bffff7">
  <animate attributeName="fill" begin="-0.3012388184872964s" values="#bffff7;#41fff5;#00c8ff;#bffff7" keyTimes="0;0.3333333333333333;0.6666666666666666;1" dur="1s" repeatCount="indefinite"/>
</path><path d="M 129 65 L 159 65 L 159 95 L 129 95 Z" fill="#bffff7">
  <animate attributeName="fill" begin="-0.9436677770649473s" values="#bffff7;#41fff5;#00c8ff;#bffff7" keyTimes="0;0.3333333333333333;0.6666666666666666;1" dur="1s" repeatCount="indefinite"/>
</path><path d="M 129 97 L 159 97 L 159 127 L 129 127 Z" fill="#bffff7">
  <animate attributeName="fill" begin="-0.08594031708700328s" values="#bffff7;#41fff5;#00c8ff;#bffff7" keyTimes="0;0.3333333333333333;0.6666666666666666;1" dur="1s" repeatCount="indefinite"/>
</path><path d="M 129 129 L 159 129 L 159 159 L 129 159 Z" fill="#bffff7">
  <animate attributeName="fill" begin="-0.9112039283221656s" values="#bffff7;#41fff5;#00c8ff;#bffff7" keyTimes="0;0.3333333333333333;0.6666666666666666;1" dur="1s" repeatCount="indefinite"/>
</path><path d="M 129 161 L 159 161 L 159 191 L 129 191 Z" fill="#bffff7">
  <animate attributeName="fill" begin="-0.3107982688388894s" values="#bffff7;#41fff5;#00c8ff;#bffff7" keyTimes="0;0.3333333333333333;0.6666666666666666;1" dur="1s" repeatCount="indefinite"/>
</path><path d="M 129 193 L 159 193 L 159 223 L 129 223 Z" fill="#bffff7">
  <animate attributeName="fill" begin="-0.27335074334729265s" values="#bffff7;#41fff5;#00c8ff;#bffff7" keyTimes="0;0.3333333333333333;0.6666666666666666;1" dur="1s" repeatCount="indefinite"/>
</path><path d="M 129 225 L 159 225 L 159 255 L 129 255 Z" fill="#bffff7">
  <animate attributeName="fill" begin="-0.710144647257754s" values="#bffff7;#41fff5;#00c8ff;#bffff7" keyTimes="0;0.3333333333333333;0.6666666666666666;1" dur="1s" repeatCount="indefinite"/>
</path><path d="M 161 1 L 191 1 L 191 31 L 161 31 Z" fill="#bffff7">
  <animate attributeName="fill" begin="-0.6384442652001426s" values="#bffff7;#41fff5;#00c8ff;#bffff7" keyTimes="0;0.3333333333333333;0.6666666666666666;1" dur="1s" repeatCount="indefinite"/>
</path><path d="M 161 33 L 191 33 L 191 63 L 161 63 Z" fill="#bffff7">
  <animate attributeName="fill" begin="-0.8223284383480979s" values="#bffff7;#41fff5;#00c8ff;#bffff7" keyTimes="0;0.3333333333333333;0.6666666666666666;1" dur="1s" repeatCount="indefinite"/>
</path><path d="M 161 65 L 191 65 L 191 95 L 161 95 Z" fill="#bffff7">
  <animate attributeName="fill" begin="-0.46596352897012555s" values="#bffff7;#41fff5;#00c8ff;#bffff7" keyTimes="0;0.3333333333333333;0.6666666666666666;1" dur="1s" repeatCount="indefinite"/>
</path><path d="M 161 97 L 191 97 L 191 127 L 161 127 Z" fill="#bffff7">
  <animate attributeName="fill" begin="-0.6736486830612584s" values="#bffff7;#41fff5;#00c8ff;#bffff7" keyTimes="0;0.3333333333333333;0.6666666666666666;1" dur="1s" repeatCount="indefinite"/>
</path><path d="M 161 129 L 191 129 L 191 159 L 161 159 Z" fill="#bffff7">
  <animate attributeName="fill" begin="-0.7543609599938508s" values="#bffff7;#41fff5;#00c8ff;#bffff7" keyTimes="0;0.3333333333333333;0.6666666666666666;1" dur="1s" repeatCount="indefinite"/>
</path><path d="M 161 161 L 191 161 L 191 191 L 161 191 Z" fill="#bffff7">
  <animate attributeName="fill" begin="-0.2476484775224985s" values="#bffff7;#41fff5;#00c8ff;#bffff7" keyTimes="0;0.3333333333333333;0.6666666666666666;1" dur="1s" repeatCount="indefinite"/>
</path><path d="M 161 193 L 191 193 L 191 223 L 161 223 Z" fill="#bffff7">
  <animate attributeName="fill" begin="-0.3478030355710933s" values="#bffff7;#41fff5;#00c8ff;#bffff7" keyTimes="0;0.3333333333333333;0.6666666666666666;1" dur="1s" repeatCount="indefinite"/>
</path><path d="M 161 225 L 191 225 L 191 255 L 161 255 Z" fill="#bffff7">
  <animate attributeName="fill" begin="-0.14905512141612334s" values="#bffff7;#41fff5;#00c8ff;#bffff7" keyTimes="0;0.3333333333333333;0.6666666666666666;1" dur="1s" repeatCount="indefinite"/>
</path><path d="M 193 1 L 223 1 L 223 31 L 193 31 Z" fill="#bffff7">
  <animate attributeName="fill" begin="-0.1579391546721098s" values="#bffff7;#41fff5;#00c8ff;#bffff7" keyTimes="0;0.3333333333333333;0.6666666666666666;1" dur="1s" repeatCount="indefinite"/>
</path><path d="M 193 33 L 223 33 L 223 63 L 193 63 Z" fill="#bffff7">
  <animate attributeName="fill" begin="-0.09774428469820468s" values="#bffff7;#41fff5;#00c8ff;#bffff7" keyTimes="0;0.3333333333333333;0.6666666666666666;1" dur="1s" repeatCount="indefinite"/>
</path><path d="M 193 65 L 223 65 L 223 95 L 193 95 Z" fill="#bffff7">
  <animate attributeName="fill" begin="-0.43407480077371835s" values="#bffff7;#41fff5;#00c8ff;#bffff7" keyTimes="0;0.3333333333333333;0.6666666666666666;1" dur="1s" repeatCount="indefinite"/>
</path><path d="M 193 97 L 223 97 L 223 127 L 193 127 Z" fill="#bffff7">
  <animate attributeName="fill" begin="-0.3443931111175626s" values="#bffff7;#41fff5;#00c8ff;#bffff7" keyTimes="0;0.3333333333333333;0.6666666666666666;1" dur="1s" repeatCount="indefinite"/>
</path><path d="M 193 129 L 223 129 L 223 159 L 193 159 Z" fill="#bffff7">
  <animate attributeName="fill" begin="-0.23292412954215436s" values="#bffff7;#41fff5;#00c8ff;#bffff7" keyTimes="0;0.3333333333333333;0.6666666666666666;1" dur="1s" repeatCount="indefinite"/>
</path><path d="M 193 161 L 223 161 L 223 191 L 193 191 Z" fill="#bffff7">
  <animate attributeName="fill" begin="-0.8095089098368408s" values="#bffff7;#41fff5;#00c8ff;#bffff7" keyTimes="0;0.3333333333333333;0.6666666666666666;1" dur="1s" repeatCount="indefinite"/>
</path><path d="M 193 193 L 223 193 L 223 223 L 193 223 Z" fill="#bffff7">
  <animate attributeName="fill" begin="-0.23096745416526346s" values="#bffff7;#41fff5;#00c8ff;#bffff7" keyTimes="0;0.3333333333333333;0.6666666666666666;1" dur="1s" repeatCount="indefinite"/>
</path><path d="M 193 225 L 223 225 L 223 255 L 193 255 Z" fill="#bffff7">
  <animate attributeName="fill" begin="-0.7145587589486264s" values="#bffff7;#41fff5;#00c8ff;#bffff7" keyTimes="0;0.3333333333333333;0.6666666666666666;1" dur="1s" repeatCount="indefinite"/>
</path><path d="M 225 1 L 255 1 L 255 31 L 225 31 Z" fill="#bffff7">
  <animate attributeName="fill" begin="-0.8467966102200644s" values="#bffff7;#41fff5;#00c8ff;#bffff7" keyTimes="0;0.3333333333333333;0.6666666666666666;1" dur="1s" repeatCount="indefinite"/>
</path><path d="M 225 33 L 255 33 L 255 63 L 225 63 Z" fill="#bffff7">
  <animate attributeName="fill" begin="-0.17843856203720623s" values="#bffff7;#41fff5;#00c8ff;#bffff7" keyTimes="0;0.3333333333333333;0.6666666666666666;1" dur="1s" repeatCount="indefinite"/>
</path><path d="M 225 65 L 255 65 L 255 95 L 225 95 Z" fill="#bffff7">
  <animate attributeName="fill" begin="-0.18215442674615703s" values="#bffff7;#41fff5;#00c8ff;#bffff7" keyTimes="0;0.3333333333333333;0.6666666666666666;1" dur="1s" repeatCount="indefinite"/>
</path><path d="M 225 97 L 255 97 L 255 127 L 225 127 Z" fill="#bffff7">
  <animate attributeName="fill" begin="-0.7458734146744871s" values="#bffff7;#41fff5;#00c8ff;#bffff7" keyTimes="0;0.3333333333333333;0.6666666666666666;1" dur="1s" repeatCount="indefinite"/>
</path><path d="M 225 129 L 255 129 L 255 159 L 225 159 Z" fill="#bffff7">
  <animate attributeName="fill" begin="-0.07249566739753706s" values="#bffff7;#41fff5;#00c8ff;#bffff7" keyTimes="0;0.3333333333333333;0.6666666666666666;1" dur="1s" repeatCount="indefinite"/>
</path><path d="M 225 161 L 255 161 L 255 191 L 225 191 Z" fill="#bffff7">
  <animate attributeName="fill" begin="-0.17004270919831446s" values="#bffff7;#41fff5;#00c8ff;#bffff7" keyTimes="0;0.3333333333333333;0.6666666666666666;1" dur="1s" repeatCount="indefinite"/>
</path><path d="M 225 193 L 255 193 L 255 223 L 225 223 Z" fill="#bffff7">
  <animate attributeName="fill" begin="-0.29429563736891634s" values="#bffff7;#41fff5;#00c8ff;#bffff7" keyTimes="0;0.3333333333333333;0.6666666666666666;1" dur="1s" repeatCount="indefinite"/>
</path><path d="M 225 225 L 255 225 L 255 255 L 225 255 Z" fill="#bffff7">
  <animate attributeName="fill" begin="-0.9136575689550026s" values="#bffff7;#41fff5;#00c8ff;#bffff7" keyTimes="0;0.3333333333333333;0.6666666666666666;1" dur="1s" repeatCount="indefinite"/>
</path></g><style type="text/css">.lded {
  max-width: 100%
}
.lded .viewer {
  width:  1140px;
  max-width: 90%;
  margin: 0 auto;
  height: 322px;
}
.lded .panel, .lded .ctrl {
  max-width: 1024px;
  margin: auto
}
.lded .panel {
  margin: -35px auto 0;
}
.gallery {
  display: flex;
  flex-wrap: nowrap;
  justify-content: space-between;
}
.gallery .item {
  flex: 1 1 256px;
  border-radius: 3px;
  width: 256px;
  height: 128px;
  margin: 0 10px 20px;
  display: inline-block;
  box-shadow: 0 1px 3px rgba(0,0,0,.3);
  background-size: 128px;
}
.gallery .item .move {
  visibility: hidden;
  opacity: 0;
  transition: visibility 0.3s ease-in-out, opacity 03.s ease-in-out;
  width: 100%;
  height: 100%;
  background-size: 128px;
}
.gallery .item:hover .move {
  visibility: visible;
  opacity: 1;
}
.gallery.icon {
  justify-content: center;
}
.gallery.icon .item {
  flex:0 0 64px;
  border-radius: 3px;
  width: 64px;
  height: 64px;
  box-shadow: none;
  background-position: center center;
  background-repeat: no-repeat;
  background-size: cover;
  margin:0 5px 10px;
  background: #fff;
}
.lded.pro .download .label { display: none }
</style></svg>